<?xml version="1.0" standalone="no"?>
<!DOCTYPE svg PUBLIC "-//W3C//DTD SVG 20010904//EN"
 "http://www.w3.org/TR/2001/REC-SVG-20010904/DTD/svg10.dtd">
<svg version="1.0" xmlns="http://www.w3.org/2000/svg"
 width="736.000000pt" height="552.000000pt" viewBox="0 0 736.000000 552.000000"
 preserveAspectRatio="xMidYMid meet">

<g transform="translate(0.000000,552.000000) scale(0.100000,-0.100000)"
fill="#000000" stroke="none">
<path d="M3484 3581 c-155 -44 -272 -157 -325 -311 -41 -123 -24 -287 44 -400
11 -19 120 -135 241 -258 242 -244 260 -257 329 -229 50 21 79 70 73 121 -4
35 -25 60 -220 255 -152 153 -221 229 -235 261 -56 123 4 275 129 328 53 22
147 19 195 -5 22 -12 89 -70 148 -129 130 -130 149 -144 204 -144 84 0 139 91
100 166 -8 16 -73 85 -144 154 -98 96 -143 133 -193 157 -115 55 -232 67 -346
34z"/>
<path d="M3562 3204 c-45 -31 -65 -101 -41 -147 6 -12 107 -119 224 -237 238
-241 253 -263 242 -366 -18 -171 -203 -274 -354 -195 -21 11 -87 70 -148 131
-60 61 -122 118 -137 126 -35 18 -72 18 -108 -1 -42 -22 -60 -53 -60 -105 0
-45 1 -46 148 -190 195 -193 268 -228 454 -218 79 5 99 10 172 46 104 52 173
122 224 229 32 68 37 88 40 171 5 116 -15 199 -68 280 -21 31 -136 155 -257
275 l-219 217 -45 0 c-24 0 -55 -7 -67 -16z"/>
</g>
</svg>
